<svg width="190" height="43" viewBox="0 0 190 43" fill="none" xmlns="http://www.w3.org/2000/svg">
<path d="M13.1115 41H4.56365V0.216861H33.9739V7.67808H13.1115V16.2259H28.7583V23.2525H13.1115V41ZM32.9733 41V0.216861H48.765C52.3387 0.216861 55.3811 0.627349 57.8923 1.44832C60.4035 2.22101 62.3352 3.50076 63.6874 5.28759C65.0879 7.02612 65.7882 9.39246 65.7882 12.3866C65.7882 14.7047 65.426 16.7088 64.7016 18.399C63.9772 20.0893 62.9148 21.3932 61.5143 22.3107C60.1621 23.2283 58.5443 23.6871 56.6609 23.6871C57.9648 23.6871 58.9789 23.9527 59.7033 24.4839C60.4277 24.9668 60.983 25.6429 61.3694 26.5122C61.7557 27.3332 62.0213 28.2024 62.1662 29.12C62.3594 30.0376 62.5284 30.931 62.6733 31.8003C62.8665 32.6695 63.1079 33.4181 63.3977 34.0459C63.7357 34.6254 64.2428 35.0117 64.9189 35.2049C65.595 35.3498 66.5367 35.1807 67.744 34.6978V39.6237C66.6333 40.5895 65.3535 41.2173 63.9048 41.5071C62.456 41.7968 61.0555 41.7002 59.7033 41.2173C58.3511 40.7344 57.2162 39.7927 56.2987 38.3922C55.4294 36.9434 54.9948 34.9634 54.9948 32.4522C54.9948 31.1483 54.9223 30.0134 54.7774 29.0476C54.6809 28.0334 54.3911 27.2124 53.9082 26.5846C53.4735 25.9085 52.7733 25.4015 51.8074 25.0634C50.8899 24.6771 49.6101 24.4598 47.9682 24.4115C46.3745 24.3149 44.2979 24.339 41.7384 24.4839V41H32.9733ZM41.7384 18.2542H47.8957C50.2138 18.2542 52.0972 18.1817 53.546 18.0368C55.0431 17.892 56.1538 17.4573 56.8782 16.7329C57.6026 16.0086 57.9648 14.8012 57.9648 13.111C57.9648 11.131 57.5301 9.75466 56.6609 8.98198C55.7916 8.161 54.5118 7.67807 52.8216 7.5332C51.1313 7.38832 49.0306 7.31588 46.5194 7.31588H41.7384V18.2542ZM67.4113 41V0.216861H97.3285V7.67808H75.959V16.8054H92.1854V23.9044H75.959V33.9734H98.1254V41H67.4113ZM97.9601 41V0.216861H127.877V7.67808H106.508V16.8054H122.734V23.9044H106.508V33.9734H128.674V41H97.9601Z" fill="white"/>
<path d="M137.88 42.0141C131.94 42.0141 127.425 40.4205 124.334 37.2332C121.291 33.9976 119.77 29.4581 119.77 23.6146V0.216861H129.115V23.5422C129.115 25.6671 129.38 27.4056 129.912 28.7578C130.491 30.0617 131.216 31.0759 132.085 31.8003C132.954 32.5246 133.896 33.0317 134.91 33.3215C135.924 33.5629 136.914 33.6837 137.88 33.6837C139.329 33.6837 140.729 33.4422 142.081 32.9593C143.434 32.4763 144.544 31.5105 145.414 30.0617C146.283 28.5646 146.718 26.3915 146.718 23.5422V0.216861H156.062V23.6146C156.062 29.5546 154.541 34.1183 151.498 37.3056C148.504 40.4446 143.965 42.0141 137.88 42.0141ZM165.803 41H157.038V0.216861H165.803V41ZM164.571 0.216861H173.844C178.431 0.216861 182.029 1.40003 184.637 3.76637C187.245 6.08442 188.549 9.56149 188.549 14.1976C188.549 18.2542 187.197 21.4415 184.492 23.7595C181.836 26.0293 178.287 27.1642 173.844 27.1642H164.644V20.9344H172.612C174.93 20.9344 176.838 20.379 178.335 19.2683C179.88 18.1093 180.653 16.3949 180.653 14.1251C180.653 11.7588 179.904 10.0444 178.407 8.98198C176.91 7.87124 174.979 7.31588 172.612 7.31588H164.571V0.216861Z" fill="white"/>
<path d="M137.88 42.0141C131.94 42.0141 127.425 40.4205 124.334 37.2332C121.291 33.9976 119.77 29.4581 119.77 23.6146V0.216861H129.115V23.5422C129.115 25.6671 129.38 27.4056 129.912 28.7578C130.491 30.0617 131.216 31.0759 132.085 31.8003C132.954 32.5246 133.896 33.0317 134.91 33.3215C135.924 33.5629 136.914 33.6837 137.88 33.6837C139.329 33.6837 140.729 33.4422 142.081 32.9593C143.434 32.4763 144.544 31.5105 145.414 30.0617C146.283 28.5646 146.718 26.3915 146.718 23.5422V0.216861H156.062V23.6146C156.062 29.5546 154.541 34.1183 151.498 37.3056C148.504 40.4446 143.965 42.0141 137.88 42.0141ZM165.803 41H157.038V0.216861H165.803V41ZM164.571 0.216861H173.844C178.431 0.216861 182.029 1.40003 184.637 3.76637C187.245 6.08442 188.549 9.56149 188.549 14.1976C188.549 18.2542 187.197 21.4415 184.492 23.7595C181.836 26.0293 178.287 27.1642 173.844 27.1642H164.644V20.9344H172.612C174.93 20.9344 176.838 20.379 178.335 19.2683C179.88 18.1093 180.653 16.3949 180.653 14.1251C180.653 11.7588 179.904 10.0444 178.407 8.98198C176.91 7.87124 174.979 7.31588 172.612 7.31588H164.571V0.216861Z" fill="url(#paint0_linear_1_43)"/>
<defs>
<linearGradient id="paint0_linear_1_43" x1="123.097" y1="4.72794" x2="131.752" y2="49.868" gradientUnits="userSpaceOnUse">
<stop stop-color="#B68CFD"/>
<stop offset="0.519231" stop-color="#FF7EA3"/>
<stop offset="1" stop-color="#FACA88"/>
</linearGradient>
</defs>
</svg>
